<?xml version="1.0" encoding="utf-8"?>
<!-- Generator: Adobe Illustrator 22.0.1, SVG Export Plug-In . SVG Version: 6.00 Build 0)  -->
<svg version="1.1" id="Calque_1" xmlns="http://www.w3.org/2000/svg" xmlns:xlink="http://www.w3.org/1999/xlink" x="0px" y="0px"
	 viewBox="0 0 500 500" style="enable-background:new 0 0 500 500;" xml:space="preserve">
<style type="text/css">
	.st0{fill:#F7F7F7;}
	.st1{fill:#E0E0E0;}
	.st2{fill:#A32338;}
	.st3{fill:#FFFFFF;}
	.st4{fill:#B22234;}
	.st5{fill:#FFFAC2;}
</style>
<path class="st0" d="M475.8,57.5v327.7l-257.9,17c0,0-23.7-1.9-30.5-13.8V80.1L475.8,57.5z"/>
<path class="st1" d="M187.5,388.4c0,0,5.3-53.2,71.9-41s0,0,0,0V244.1L185,256.9L187.5,388.4z"/>
<ellipse class="st2" cx="230.3" cy="216.4" rx="81.1" ry="72.4"/>
<path class="st3" d="M259.3,20.5V349c0,0-0.1-12-27.8-17.1L41.3,349l0.5-326.7L223.1,4.9C223.1,4.9,254,4.4,259.3,20.5z"/>
<path class="st4" d="M259.3,133.6v137v4.8c-2.4-2.7-6.1-3.1-9.1-3.5c-49.3-6.6-85.8-38.3-79.9-82.4c5.2-39.4,40.5-59.2,83.2-58.2
	C255.5,131.4,257.7,131.3,259.3,133.6z"/>
<rect x="24.8" y="13.9" class="st5" width="17.8" height="483"/>
</svg>
