<?xml version="1.0" encoding="utf-8"?>
<!-- Generator: Adobe Illustrator 22.0.1, SVG Export Plug-In . SVG Version: 6.00 Build 0)  -->
<svg version="1.1" id="Calque_1" xmlns="http://www.w3.org/2000/svg" xmlns:xlink="http://www.w3.org/1999/xlink" x="0px" y="0px"
	 viewBox="0 0 500 500" style="enable-background:new 0 0 500 500;" xml:space="preserve">
<style type="text/css">
	.st0{fill:#FFFAC2;}
	.st1{fill:#A32338;}
	.st2{fill:#B22234;}
	.st3{fill:#FFF7F7;}
	.st4{fill:#931F33;}
	.st5{fill:#3C3B6E;}
	.st6{fill:#FFFFFF;}
</style>
<rect x="23" y="11" class="st0" width="18" height="487"/>
<polygon class="st1" points="477.8,309 477.8,51.2 257.6,67.8 257.6,366 "/>
<path class="st2" d="M259,16.5c-0.1-0.3-0.2-0.5-0.3-0.7c-0.1-0.2-0.2-0.4-0.3-0.7c0,0,0-0.1,0-0.1c-0.1-0.2-0.2-0.3-0.3-0.5
	c-5.7-9.1-20.4-11.6-28.9-12.3L41,20.4l-0.7,0.1l-0.7,328.4l1.4-0.1l145-13.2l1-0.1l72.5-6.6V17.6C259.3,17.2,259.2,16.9,259,16.5z
	 M257.9,197.9c0-5.4-9.1-5.3-13.1-5l8.3,1.8L257.9,197.9z"/>
<path class="st1" d="M259.5,328.9V72.1l-0.1,0l-7.2,0.6H252l-33.4,2.6l-1.1,0.1l-6.9,0.6l-1.4,0.1h0L187,77.8v310.8
	c6.8,12,30.7,13.9,30.7,13.9l120.5-7.9l139.5-9.2V309L259.5,328.9z M244.8,193l13.1-1.3v6.3C257.9,192.5,248.8,192.7,244.8,193z"/>
<polygon class="st3" points="477.8,68.9 477.8,51.2 228.6,70.6 228.1,89.2 "/>
<polygon class="st3" points="477.8,105.4 477.8,87.6 228.6,107.1 228.1,125.6 "/>
<polygon class="st3" points="477.8,141.8 477.8,124.1 228.6,143.5 228.1,162.1 "/>
<polygon class="st3" points="477.8,178.3 477.8,160.5 228.6,180 228.1,198.5 "/>
<polygon class="st3" points="477.8,214.7 477.8,197 228.6,216.4 228.1,235 "/>
<polygon class="st3" points="477.8,251.2 477.8,233.4 228.6,252.9 228.1,271.4 "/>
<polygon class="st3" points="477.8,287.6 477.8,269.9 228.6,289.3 228.1,307.9 "/>
<polygon class="st3" points="477.8,324.1 477.8,306.3 228.6,325.8 228.1,344.3 "/>
<polygon class="st3" points="477.8,360.5 477.8,342.8 187.7,362.2 187.2,380.8 "/>
<path class="st4" d="M259.5,243.1v104.1c-0.1,0-0.2,0-0.3-0.1c-66.8-12.1-72.1,41.4-72.1,41.4l-1-52.9v-0.1l-0.3-18.2l-0.4-19.8
	l-0.3-12.7l-0.4-19.8l-0.2-9l2.5-0.4l56.6-9.7L259.5,243.1z"/>
<path class="st2" d="M259,16.5c-0.1-0.3-0.2-0.5-0.3-0.7c-0.1-0.2-0.2-0.4-0.3-0.7c0,0,0-0.1,0-0.1c-0.1-0.2-0.2-0.3-0.3-0.5
	c-5.7-9.1-20.4-11.6-28.9-12.3c-3.7-0.3-6.1-0.3-6.1-0.3L41,19.4l-0.7,0.1l-0.2,0l-0.5,329.4l1.4-0.1l145-13l1-0.1l44.4-4
	c21.6,4,26.6,12.1,27.7,15.6c0.3,1,0.3,1.6,0.3,1.6V17.6C259.3,17.2,259.2,16.9,259,16.5z M244.8,193l13.1-1.3v6.3
	C257.9,192.5,248.8,192.7,244.8,193z"/>
<path class="st5" d="M259.5,17.6v160.5l-72.5,7L40.3,199.4V18.9L229.1,0.6C238.5,1.4,255.6,6,259.5,17.6z"/>
<g id="s5">
	<g id="s4">
		<path id="s" class="st6" d="M55.9,25.1l7.3,17.9L46.8,32.8l19.3-1.4L51.2,43.9L55.9,25.1z"/>
		<g>
			<path id="s_1_" class="st6" d="M58.4,60.7l7.3,17.9L49.3,68.4L68.6,67L53.7,79.5L58.4,60.7z"/>
		</g>
		<g>
			<path id="s_2_" class="st6" d="M60.9,96.2l7.3,17.9l-16.4-10.3l19.3-1.4L56.2,115L60.9,96.2z"/>
		</g>
		<g>
			<path id="s_3_" class="st6" d="M63.4,131.7l7.3,17.9l-16.4-10.3l19.3-1.4l-14.8,12.5L63.4,131.7z"/>
		</g>
	</g>
	<g>
		<path id="s_4_" class="st6" d="M65.9,167.3l7.3,17.9L56.8,175l19.3-1.4l-14.8,12.5L65.9,167.3z"/>
	</g>
</g>
<g id="s9">
	<g id="s4_1_">
		<path id="s_5_" class="st6" d="M78.1,41.4l7.3,17.9L68.9,49.1l19.3-1.4L73.4,60.2L78.1,41.4z"/>
		<g>
			<path id="s_6_" class="st6" d="M80.6,77l7.3,17.9L71.4,84.7l19.3-1.4L75.9,95.8L80.6,77z"/>
		</g>
		<g>
			<path id="s_7_" class="st6" d="M83.1,112.5l7.3,17.9l-16.4-10.3l19.3-1.4l-14.8,12.5L83.1,112.5z"/>
		</g>
		<g>
			<path id="s_8_" class="st6" d="M85.6,148l7.3,17.9l-16.4-10.3l19.3-1.4l-14.8,12.5L85.6,148z"/>
		</g>
	</g>
</g>
<g>
	<g id="s18">
		<g id="s5_1_">
			<g id="s4_2_">
				<path id="s_9_" class="st6" d="M97.7,22.2l7.3,17.9L88.6,29.9l19.3-1.4L93,41L97.7,22.2z"/>
				<g>
					<path id="s_10_" class="st6" d="M100.2,57.7l7.3,17.9L91.1,65.4l19.3-1.4L95.5,76.5L100.2,57.7z"/>
				</g>
				<g>
					<path id="s_11_" class="st6" d="M102.7,93.3l7.3,17.9L93.6,101l19.3-1.4L98,112.1L102.7,93.3z"/>
				</g>
				<g>
					<path id="s_12_" class="st6" d="M105.2,128.8l7.3,17.9l-16.4-10.3l19.3-1.4l-14.8,12.5L105.2,128.8z"/>
				</g>
			</g>
			<g>
				<path id="s_13_" class="st6" d="M107.7,164.3l7.3,17.9L98.6,172l19.3-1.4L103,183.1L107.7,164.3z"/>
			</g>
		</g>
		<g id="s9_1_">
			<g id="s4_3_">
				<path id="s_14_" class="st6" d="M119.9,38.5l7.3,17.9l-16.4-10.3l19.3-1.4l-14.8,12.5L119.9,38.5z"/>
				<g>
					<path id="s_15_" class="st6" d="M122.4,74l7.3,17.9l-16.4-10.3l19.3-1.4l-14.8,12.5L122.4,74z"/>
				</g>
				<g>
					<path id="s_16_" class="st6" d="M124.9,109.6l7.3,17.9l-16.4-10.3l19.3-1.4l-14.8,12.5L124.9,109.6z"/>
				</g>
				<g>
					<path id="s_17_" class="st6" d="M127.4,145.1l7.3,17.9l-16.4-10.3l19.3-1.4l-14.8,12.5L127.4,145.1z"/>
				</g>
			</g>
		</g>
	</g>
	<g>
		<g>
			<g>
				<g id="s5_2_">
					<g id="s4_4_">
						<path id="s_18_" class="st6" d="M139.5,19.3l7.3,17.9L130.3,27l19.3-1.4L134.8,38L139.5,19.3z"/>
						<g>
							<path id="s_19_" class="st6" d="M142,54.8l7.3,17.9l-16.4-10.3l19.3-1.4l-14.8,12.5L142,54.8z"/>
						</g>
						<g>
							<path id="s_20_" class="st6" d="M144.5,90.3l7.3,17.9L135.4,98l19.3-1.4l-14.8,12.5L144.5,90.3z"/>
						</g>
						<g>
							<path id="s_21_" class="st6" d="M147,125.9l7.3,17.9l-16.4-10.3l19.3-1.4l-14.8,12.5L147,125.9z"/>
						</g>
					</g>
					<g>
						<path id="s_22_" class="st6" d="M149.5,161.4l7.3,17.9l-16.4-10.3l19.3-1.4l-14.8,12.5L149.5,161.4z"/>
					</g>
				</g>
				<g id="s9_2_">
					<g id="s4_5_">
						<path id="s_23_" class="st6" d="M161.7,35.6l7.3,17.9l-16.4-10.3l19.3-1.4L157,54.3L161.7,35.6z"/>
						<g>
							<path id="s_24_" class="st6" d="M164.2,71.1l7.3,17.9L155,78.8l19.3-1.4l-14.8,12.5L164.2,71.1z"/>
						</g>
						<g>
							<path id="s_25_" class="st6" d="M166.7,106.6l7.3,17.9l-16.4-10.3l19.3-1.4L162,125.4L166.7,106.6z"/>
						</g>
						<g>
							<path id="s_26_" class="st6" d="M169.2,142.2l7.3,17.9L160,149.9l19.3-1.4l-14.8,12.5L169.2,142.2z"/>
						</g>
					</g>
				</g>
				<g>
					<g id="s18_1_">
						<g id="s5_3_">
							<g id="s4_6_">
								<path id="s_27_" class="st6" d="M181.3,16.3l7.3,17.9L172.1,24l19.3-1.4l-14.8,12.5L181.3,16.3z"/>
								<g>
									<path id="s_28_" class="st6" d="M183.8,51.9l7.3,17.9l-16.4-10.3l19.3-1.4l-14.8,12.5L183.8,51.9z"/>
								</g>
								<g>
									<path id="s_29_" class="st6" d="M186.3,87.4l7.3,17.9l-16.4-10.3l19.3-1.4l-14.8,12.5L186.3,87.4z"/>
								</g>
								<g>
									<path id="s_30_" class="st6" d="M188.8,122.9l7.3,17.9l-16.4-10.3l19.3-1.4l-14.8,12.5L188.8,122.9z"/>
								</g>
							</g>
							<g>
								<path id="s_31_" class="st6" d="M191.3,158.5l7.3,17.9l-16.4-10.3l19.3-1.4l-14.8,12.5L191.3,158.5z"/>
							</g>
						</g>
						<g id="s9_3_">
							<g id="s4_7_">
								<path id="s_32_" class="st6" d="M203.5,32.6l7.3,17.9l-16.4-10.3l19.3-1.4l-14.8,12.5L203.5,32.6z"/>
								<g>
									<path id="s_33_" class="st6" d="M206,68.1l7.3,17.9l-16.4-10.3l19.3-1.4l-14.8,12.5L206,68.1z"/>
								</g>
								<g>
									<path id="s_34_" class="st6" d="M208.5,103.7l7.3,17.9l-16.4-10.3l19.3-1.4l-14.8,12.5L208.5,103.7z"/>
								</g>
								<g>
									<path id="s_35_" class="st6" d="M211,139.2l7.3,17.9l-16.4-10.3l19.3-1.4L206.3,158L211,139.2z"/>
								</g>
							</g>
						</g>
					</g>
					<g>
						<g>
							<g id="s5_4_">
								<g id="s4_8_">
									<path id="s_36_" class="st6" d="M223.1,13.4l7.3,17.9l-16.4-10.3l19.3-1.4l-14.8,12.5L223.1,13.4z"/>
									<g>
										<path id="s_37_" class="st6" d="M225.6,48.9l7.3,17.9l-16.4-10.3l19.3-1.4l-14.8,12.5L225.6,48.9z"/>
									</g>
									<g>
										<path id="s_38_" class="st6" d="M228.1,84.4l7.3,17.9l-16.4-10.3l19.3-1.4l-14.8,12.5L228.1,84.4z"/>
									</g>
									<g>
										<path id="s_39_" class="st6" d="M230.6,120l7.3,17.9l-16.4-10.3l19.3-1.4l-14.8,12.5L230.6,120z"/>
									</g>
								</g>
								<g>
									<path id="s_40_" class="st6" d="M233.1,155.5l7.3,17.9l-16.4-10.3l19.3-1.4l-14.8,12.5L233.1,155.5z"/>
								</g>
							</g>
							<g id="s9_4_">
								<g id="s4_9_">
									<polygon class="st6" points="259.6,37.8 256,40.8 258.8,47.6 252.5,43.7 246.9,48.5 248.7,41.3 242.4,37.4 249.8,36.9 
										251.5,29.7 254.3,36.5 259.6,36.2 									"/>
									<g>
										<polygon class="st6" points="258.6,76.3 258.5,76.3 258.6,76.4 258.4,81.4 255,79.2 249.4,84 251.2,76.8 251.1,76.8 
											244.9,72.9 252.3,72.4 254,65.2 256.8,72.1 258.7,71.9 										"/>
									</g>
									<g>
										<polygon class="st6" points="257.8,103.9 257.6,114.8 257.5,114.8 251.9,119.5 253.7,112.4 247.4,108.4 254.8,107.9 
											256.6,100.7 										"/>
									</g>
									<g>
										<polygon class="st6" points="258.4,143.5 258.1,153.2 255.9,155.1 257.7,147.9 251.5,144 										"/>
									</g>
								</g>
							</g>
						</g>
					</g>
				</g>
			</g>
		</g>
	</g>
</g>
<path class="st6" d="M257.9,197.9v13.6l-9,0.9c-3.9,0.4-9,0.9-12.9,1.3l-1.3,0.1c-2.7,0.3-4.6,0.5-4.6,0.5l-43.2,4.4L41,233.1
	l-0.9,0.1l0-19.9l0.9-0.1l146-14.4l39.7-4l16.4-1.7c0,0,0,0,0.1,0l0.5,0l0.5,0c0.2,0,0.4,0,0.7-0.1
	C248.8,192.7,257.9,192.5,257.9,197.9z"/>
<path class="st6" d="M257.9,232.5V246l-9,0.9c-3.9,0.4-9,0.9-12.9,1.3l-1.3,0.1c-2.7,0.3-4.6,0.5-4.6,0.5l-43.2,4.4L41,267.6
	l-0.9,0.1l0-19.9l0.9-0.1l146-14.4l39.7-4l16.4-1.7c0,0,0,0,0.1,0l0.5,0l0.5,0c0.2,0,0.4,0,0.7-0.1
	C248.8,227.2,257.9,227.1,257.9,232.5z"/>
<path class="st6" d="M257.9,267v13.6l-9,0.9c-3.9,0.4-9,0.9-12.9,1.3l-1.3,0.1c-2.7,0.3-4.6,0.5-4.6,0.5l-43.2,4.4L41,302.2
	l-0.9,0.1l0-19.9l0.9-0.1l146-14.4l39.7-4l16.4-1.7c0,0,0,0,0.1,0l0.5,0l0.5,0c0.2,0,0.4,0,0.7-0.1
	C248.8,261.7,257.9,261.6,257.9,267z"/>
<path class="st6" d="M257.9,301.6v13.6l-9,0.9c-3.9,0.4-9,0.9-12.9,1.3l-1.3,0.1c-2.7,0.3-4.6,0.5-4.6,0.5l-43.2,4.4L41,336.7
	l-0.9,0.1l0-19.9l0.9-0.1l146-14.4l39.7-4l16.4-1.7c0,0,0,0,0.1,0l0.5,0l0.5,0c0.2,0,0.4,0,0.7-0.1
	C248.8,296.3,257.9,296.2,257.9,301.6z"/>
<path class="st6" d="M257.9,197.9v13.6c0,2.5,0,4.2,0,4.2s-1.7-4-9-3.3c-3.9,0.4-9,0.9-12.9,1.3l-1.3,0.1c-2.7,0.3-4.6,0.5-4.6,0.5
	l-3.4-19.5l16.4-1.7c0,0,0,0,0.1,0c0.1,0,0.3,0,0.5,0l0.5,0c0.2,0,0.4,0,0.7-0.1C248.8,192.7,257.9,192.5,257.9,197.9z"/>
<path class="st6" d="M257.9,232.5V246c0,2.5,0,4.2,0,4.2s-1.7-4-9-3.3c-3.9,0.4-9,0.9-12.9,1.3l-1.3,0.1c-2.7,0.3-4.6,0.5-4.6,0.5
	l-3.4-19.5l16.4-1.7c0,0,0,0,0.1,0c0.1,0,0.3,0,0.5,0l0.5,0c0.2,0,0.4,0,0.7-0.1C248.8,227.2,257.9,227.1,257.9,232.5z"/>
<path class="st6" d="M257.9,267v13.6c0,2.5,0,4.2,0,4.2s-1.7-4-9-3.3c-3.9,0.4-9,0.9-12.9,1.3l-1.3,0.1c-2.7,0.3-4.6,0.5-4.6,0.5
	l-3.4-19.5l16.4-1.7c0,0,0,0,0.1,0c0.1,0,0.3,0,0.5,0l0.5,0c0.2,0,0.4,0,0.7-0.1C248.8,261.7,257.9,261.6,257.9,267z"/>
<path class="st6" d="M257.9,301.6v13.6c0,2.5,0,4.2,0,4.2s-1.7-4-9-3.3c-3.9,0.4-9,0.9-12.9,1.3l-1.3,0.1c-2.7,0.3-4.6,0.5-4.6,0.5
	l-3.4-19.5l16.4-1.7c0,0,0,0,0.1,0c0.1,0,0.3,0,0.5,0l0.5,0c0.2,0,0.4,0,0.7-0.1C248.8,296.3,257.9,296.2,257.9,301.6z"/>
</svg>
