<svg id="Calque_1" data-name="Calque 1" xmlns="http://www.w3.org/2000/svg" viewBox="0 0 500 500"><defs><style>.cls-1{fill:#fffac2;}.cls-2{fill:#b22234;}.cls-3{fill:#931f33;}.cls-4{fill:#a32338;}.cls-5{fill:#f7f7f7;}.cls-6{fill:#e8e8e8;}.cls-7{fill:#fff;}</style></defs><title>canada-flag</title><rect class="cls-1" x="41.08" y="28.47" width="16.65" height="451.66"/><path class="cls-2" d="M260,33.55c-.11-.23-.21-.45-.33-.68s-.2-.41-.32-.62l0-.08c-.1-.16-.18-.32-.28-.47-5.27-8.41-19-10.77-26.78-11.43-3.4-.29-5.7-.26-5.7-.26l-81.9,7.87L57.73,36.22l-.63.08h-.22l-.42,305.5,1.27-.12,86.92-7.81,47.59-4.27h.06l.87-.09,41.19-3.71c14.89,2.74,21.27,7.62,24,11.27a11,11,0,0,1,1.73,3.21,5.3,5.3,0,0,1,.32,1.52V34.63C260.27,34.27,260.14,33.9,260,33.55ZM258.94,196v5.85c0-5-8.48-4.9-12.11-4.62Z"/><path class="cls-3" d="M260.4,243.78v96.57a3,3,0,0,0-.32-.06,11,11,0,0,0-1.73-3.21c-2.72-3.65-9.1-8.53-24-11.27l-41.19,3.71-.87.09h-.06v-.14l-.32-16.9-.35-18.39-.24-11.77L191,264l-.16-8.33.06,0,2.29-.39,52.49-9Z"/><polygon class="cls-4" points="462.85 304.89 462.85 65.74 258.68 81.17 258.68 357.7 462.85 304.89"/><path class="cls-4" d="M385.59,311.91,260.4,323.28V85.12l-.13,0-6.71.52h-.09l-31,2.44-1,.07-6.39.52-1.29.1h0l-4.47.35-16.1,1.25V378.68a2.82,2.82,0,0,0,.24.36c6.55,10.78,28.27,12.54,28.27,12.54l111.78-7.35,53-3.49,76.36-5V304.89ZM258.94,196v5.85c0-5-8.48-4.9-12.11-4.62Z"/><path class="cls-5" d="M333.46,384.23l-111.78,7.35S200,389.82,193.41,379l.36-6.65,6.64-121.27,8.86-162,.22-4,127.32-9.8Z"/><path class="cls-4" d="M242,200.5a1.13,1.13,0,0,0,.75,0c.9-.08,1.26-.73,1.49-1.47a5.21,5.21,0,0,0,.09-2.42q-2.36-13.06-4.69-26.13c-.35-1.95-.69-3.9-1-5.88a1.92,1.92,0,0,1,.95.37c2.4,1.29,4.77,2.62,7.19,3.86s3.91.71,5.14-1.68l9.62-18.76c.15-.3.31-.6.52-1l3.1,6q3.58,7,7.18,14c1,2,2.37,2.47,4.42,1.67a11.41,11.41,0,0,0,1.27-.61c1.71-.91,3.41-1.84,5.11-2.76l2.3-1.23c0,.3,0,.48-.05.66q-2.76,15.33-5.53,30.65a7,7,0,0,0-.06,3.16,1.94,1.94,0,0,0,2.82,1.42,4.67,4.67,0,0,0,1.82-1.44q6.21-7.29,12.44-14.57c.21-.24.33-.6.74-.67.66,2.43,1.3,4.84,2,7.25.52,1.92,1.65,2.62,3.57,2.21,3.21-.7,6.41-1.42,9.62-2.13l6.55-1.43c-.08.36-.12.6-.18.84-1.37,5.23-2.76,10.45-4.11,15.68a22.14,22.14,0,0,0-.89,4,1.92,1.92,0,0,0,1.08,2c2.21,1.08,4.44,2.14,6.66,3.21v.18c-.35,0-.52.33-.74.52q-13.75,11.67-27.49,23.33a4.57,4.57,0,0,0-1.62,5.33c.81,2.56,1.53,5.15,2.32,7.85l-5.66-.67c-7.48-.9-15-1.82-22.45-2.71-1.79-.21-2.79.73-2.75,2.54.24,9.95.47,19.9.75,29.85,0,.9-.25,1.1-1.07,1a27.29,27.29,0,0,0-3,0c-.59,0-.73-.14-.71-.73.2-4.19.35-8.38.53-12.57.24-6,.5-12.07.74-18.11a2.19,2.19,0,0,0-2.61-2c-2.33.24-4.66.55-7,.83l-20.87,2.53c-.12,0-.24,0-.48,0,.54-1.9,1.07-3.75,1.6-5.59.24-.81.46-1.62.72-2.43a4.29,4.29,0,0,0-1.52-5q-13.77-11.65-27.48-23.35c-.22-.18-.44-.36-.64-.55s.08-.3.13-.44l5.48-2.63c1.88-.9,2.21-1.48,1.7-3.54-.88-3.61-1.85-7.19-2.77-10.79-.72-2.87-1.59-5.7-2.19-8.6l.22,0,9.22,2.08c2.22.5,4.45,1,6.67,1.47,1.9.41,3.05-.26,3.55-2.08.65-2.34,1.27-4.69,1.9-7l.25-.41,13.19,15.48A3.42,3.42,0,0,0,242,200.5Z"/><path class="cls-6" d="M260.4,240.86v96.57l-.32-.06c-61.95-11.19-66.91,38.39-66.91,38.39l-.93-49.07v-.14l-.33-16.9-.35-18.39-.23-11.77L191,261.1l-.16-8.33,2.35-.41,52.49-9Z"/><path class="cls-2" d="M260,33.55c-.1-.23-.2-.45-.32-.68s-.2-.41-.32-.62l0-.08c-.1-.16-.18-.32-.28-.47-5.27-8.41-19-10.77-26.78-11.43-3.41-.29-5.7-.26-5.7-.26L57.73,36.22l-.63.08h-.22l-.42,305.5,1.27-.12,134.51-12.08.93-.09,41.19-3.71c20.06,3.69,24.67,11.25,25.72,14.48a5.3,5.3,0,0,1,.32,1.52V34.63C260.27,34.27,260.14,33.9,260,33.55ZM246.83,197.23,258.94,196v5.85C258.94,196.85,250.46,197,246.83,197.23Z"/><path class="cls-7" d="M260.42,34.64V341.81a5,5,0,0,0-.34-1.52,11.24,11.24,0,0,0-1.75-3.21c-2.69-3.64-9.07-8.54-24-11.28l-41.21,3.71-.87.1h0l-9.24.61v-306L226.56,20s2.3,0,5.68.26c7.82.66,21.53,3,26.8,11.42.1.16.17.31.26.47s0,.07.05.1c.12.21.21.4.33.61a7,7,0,0,1,.31.69Z"/><path class="cls-2" d="M260.42,130.14V241.53c-.88.09-1.75.21-2.63.31l-27.35,3.33h-.61c.71-2.51,1.39-4.92,2.1-7.33.28-1.06.59-2.13.92-3.19.88-2.65.12-4.75-2-6.55q-18.06-15.24-36-30.59c-.28-.23-.56-.47-.85-.73s.12-.38.19-.57l7.17-3.45c2.48-1.16,2.9-1.91,2.24-4.63-1.16-4.73-2.43-9.41-3.64-14.14-.94-3.75-2.08-7.47-2.86-11.27a.86.86,0,0,0,.28,0c4,.93,8.06,1.82,12.08,2.75l8.75,1.91c2.48.54,4-.33,4.66-2.72.85-3.07,1.65-6.14,2.48-9.24.09-.17.21-.33.31-.52L243,175.15a4.41,4.41,0,0,0,2.91,1.82,1.41,1.41,0,0,0,1,0c1.18-.09,1.65-.94,1.94-1.91a6.54,6.54,0,0,0,.12-3.17q-3.09-17.13-6.15-34.23c-.45-2.58-.9-5.13-1.37-7.71a2.37,2.37,0,0,1,1.25.48c3.15,1.7,6.24,3.45,9.41,5.06s5.13.92,6.74-2.2C259.35,132.25,259.9,131.18,260.42,130.14Z"/></svg>