<?xml version="1.0" encoding="utf-8"?>
<!-- Generator: Adobe Illustrator 22.0.1, SVG Export Plug-In . SVG Version: 6.00 Build 0)  -->
<svg version="1.1" id="Calque_1" xmlns="http://www.w3.org/2000/svg" xmlns:xlink="http://www.w3.org/1999/xlink" x="0px" y="0px"
	 viewBox="0 0 500 500" style="enable-background:new 0 0 500 500;" xml:space="preserve">
<style type="text/css">
	.st0{fill:#F7F7F7;}
	.st1{fill:#E0E0E0;}
	.st2{fill:#FFFFFF;}
	.st3{fill:#FFFAC2;}
	.st4{fill:#3C3B6E;}
	.st5{fill:#A32338;}
</style>
<path class="st0" d="M477.4,54.3v331.4l-139.9,9.2l-120.9,8c0,0-24-2-30.8-14V77.1l152.1-11.9L477.4,54.3z"/>
<path class="st1" d="M185.7,388.9c0,0,5.4-53.8,72.7-41.5s0,0,0,0V243l-75.2,12.9L185.7,388.9z"/>
<path class="st2" d="M258.4,16.8V349c0,0-0.1-12.1-28.2-17.3L37.9,349l0.5-330.4L221.8,1C221.8,1,253,0.6,258.4,16.8z"/>
<rect x="21.3" y="10.2" class="st3" width="18" height="488.4"/>
<polyline class="st4" points="38.3,18.6 206.3,2.5 206.3,334.5 37.9,349 38.3,18.6 "/>
<polygon class="st5" points="477.4,54.3 477.4,385.7 324.9,395.7 322.6,70.4 322.6,66.6 "/>
</svg>
