<?xml version="1.0" encoding="utf-8"?>
<!-- Generator: Adobe Illustrator 22.0.1, SVG Export Plug-In . SVG Version: 6.00 Build 0)  -->
<svg version="1.1" id="Calque_1" xmlns="http://www.w3.org/2000/svg" xmlns:xlink="http://www.w3.org/1999/xlink" x="0px" y="0px"
	 viewBox="0 0 500 500" style="enable-background:new 0 0 500 500;" xml:space="preserve">
<style type="text/css">
	.st0{fill:#FFFAC2;}
	.st1{fill:#B22234;}
	.st2{fill:#931F33;}
	.st3{fill:#A32338;}
	.st4{fill:#8E2136;}
	.st5{fill:#FFFFFF;}
	.st6{fill:#F4F4F4;}
</style>
<rect x="25.5" y="12.9" class="st0" width="17.6" height="476.1"/>
<path class="st1" d="M256.2,18.2c-0.1-0.2-0.2-0.5-0.3-0.7c-0.1-0.2-0.2-0.4-0.3-0.6c0,0,0-0.1,0-0.1c-0.1-0.2-0.2-0.3-0.3-0.5
	c-5.6-8.9-20-11.4-28.2-12c-3.6-0.3-6-0.3-6-0.3l-86.3,8.3L43,21l-0.7,0.1l-0.2,0l-0.4,322L43,343l91.6-8.2l50.2-4.5h0.1l0.9-0.1
	l43.4-3.9c15.7,2.9,22.4,8,25.3,11.9c1,1.3,1.5,2.5,1.8,3.4c0.3,1,0.3,1.6,0.3,1.6V19.4C256.5,19,256.4,18.6,256.2,18.2z
	 M255.1,189.5v6.2c0-5.3-8.9-5.2-12.8-4.9L255.1,189.5z"/>
<path class="st2" d="M256.7,239.8v101.8c-0.1,0-0.2,0-0.3-0.1c-0.3-0.9-0.8-2-1.8-3.4c-2.9-3.8-9.6-9-25.3-11.9l-43.4,3.9l-0.9,0.1
	h-0.1v-0.1l-0.3-17.8l-0.4-19.4l-0.2-12.4l-0.4-19.4l-0.2-8.8l0.1,0l2.4-0.4l55.3-9.5L256.7,239.8z"/>
<polygon class="st3" points="470.1,304.2 470.1,52.2 254.9,68.4 254.9,359.9 "/>
<path class="st3" d="M388.6,311.6l-131.9,12v-251l-0.1,0l-7.1,0.6h-0.1l-32.7,2.6l-1.1,0.1l-6.7,0.5l-1.4,0.1h0l-4.7,0.4l-17,1.3
	V382c0.1,0.1,0.2,0.3,0.2,0.4c6.9,11.4,29.8,13.2,29.8,13.2l117.8-7.8l55.9-3.7l80.5-5.3v-74.6L388.6,311.6z M255.1,189.5v6.2
	c0-5.3-8.9-5.2-12.8-4.9L255.1,189.5z"/>
<path class="st4" d="M256.7,236.7v101.8c-0.1,0-0.2,0-0.3-0.1c-65.3-11.8-70.5,40.5-70.5,40.5l-1-51.7v-0.1l-0.3-17.8l-0.4-19.4
	l-0.2-12.4l-0.4-19.4l-0.2-8.8l2.5-0.4l55.3-9.5L256.7,236.7z"/>
<path class="st1" d="M256.2,18.2c-0.1-0.2-0.2-0.5-0.3-0.7c-0.1-0.2-0.2-0.4-0.3-0.6c0,0,0-0.1,0-0.1c-0.1-0.2-0.2-0.3-0.3-0.5
	c-5.6-8.9-20-11.4-28.2-12c-3.6-0.3-6-0.3-6-0.3L43,21l-0.7,0.1l-0.2,0l-0.4,322L43,343l141.8-12.7l1-0.1l43.4-3.9
	c21.1,3.9,26,11.9,27.1,15.3c0.3,1,0.3,1.6,0.3,1.6V19.4C256.5,19,256.4,18.6,256.2,18.2z M242.4,190.7l12.8-1.3v6.2
	C255.1,190.3,246.2,190.5,242.4,190.7z"/>
<path class="st5" d="M206.8,223.5v-54.6l39.7-2.7c0,0,10.1,0.4,10.1,4.7s0,58.6,0,58.6s-3.8-9-7.9-9S206.8,223.5,206.8,223.5z"/>
<polygon class="st6" points="256.7,122.6 292.1,119.1 291.8,294.4 256.7,298.2 "/>
<polyline class="st6" points="289.5,186.5 340.9,182 340.9,231.6 289.5,236.7 "/>
</svg>
