<svg id="Calque_1" data-name="Calque 1" xmlns="http://www.w3.org/2000/svg" viewBox="0 0 500 500"><defs><style>.cls-1{fill:#383866;}.cls-2{fill:#962339;}.cls-3{fill:#36365e;}.cls-4{fill:#eaeaea;}.cls-5{fill:#f7f7f7;}.cls-6{fill:#b22234;}.cls-7{fill:#a32338;}.cls-8{fill:#3c3b6e;}.cls-9{fill:#fff;}.cls-10{fill:#fffac2;}</style></defs><title>uk-flag</title><path class="cls-1" d="M455.16,72v298.8L329,379.15l-109,7.17s-21.67-1.75-27.8-12.58V92.64L329.33,81.9Z"/><path class="cls-2" d="M220,24.46V386.32c-19.13-.69-27.8-12.58-27.8-12.58V27.13Z"/><path class="cls-3" d="M192.2,373.74s4.85-48.51,65.55-37.38h0V242.2l-67.84,11.62Z"/><path class="cls-4" d="M224,386.32V336.87s-7.83,2-11.81,5.21v43.27S219.73,386.94,224,386.32Z"/><path class="cls-5" d="M455.16,72v32.5L283.92,190.12l-1.94,1h-6.91l-26.46,3.69h0a0,0,0,0,0,0,0l-2.37.32V176.06Z"/><polygon class="cls-5" points="279.8 260.04 455.16 337.78 455.16 370.84 239.44 274.22 242.66 260.98 279.8 260.04 279.8 260.04"/><path class="cls-5" d="M240.52,269.83a11.16,11.16,0,0,1,1.26-1.34,42,42,0,0,1-1.15,6.27c-.44,1.22-.83,1.17-1.17-.53A5.14,5.14,0,0,1,240.52,269.83Z"/><path class="cls-5" d="M455.16,171.47v68.21L279.79,260l-.46,0c-1.75.07-8.39.42-15.76,1.5h-.05a92.77,92.77,0,0,0-10.1,1.94c-4.79,1.2-9.08,2.83-11.64,5,.3-2.14.6-4.68.88-7.49v0c1.87-17.94,3.59-46.8,4-53,0-.67.07-1.09.07-1.18v0s-4.42-8.69,1.89-12h0a11,11,0,0,1,3.68-1.09c2.15-.3,10.54-1.24,22.78-2.6l8.85-1C337.63,184.17,441.21,173,455.16,171.47Z"/><polygon class="cls-6" points="251.19 262.45 271.34 260.98 455.16 343.49 455.66 357.16 251.19 262.45"/><polygon class="cls-7" points="455.16 184.63 455.16 224.53 453.36 224.51 256.51 247.97 246.62 208.01 246.35 206.88 246.69 206.83 455.16 184.63"/><path class="cls-8" d="M257.76,38.27V337.78s-.12-10.95-25.4-15.58L220,323.3l-27.8,2.49-133.32,12L59.3,39.9,192.2,27.13,220,24.46l4.75-.46S252.85,23.61,257.76,38.27Z"/><path class="cls-9" d="M60.13,155.5v77l177.19-16.26s20.43-.11,20.43,12.91V152.86s-8.86-14.48-20.43-13.62S60.13,155.5,60.13,155.5v77"/><path class="cls-9" d="M251.59,30.54V329.23s5.16,3.16,6.16,8.55V38.26A15,15,0,0,0,251.59,30.54Z"/><polygon class="cls-9" points="202.11 149.06 59.92 74.93 59.09 49.76 59.3 39.9 251.38 135.67 257.54 162.72 218.18 162.72 202.11 149.06"/><polygon class="cls-9" points="213.42 204.76 59.71 292.72 59.92 330.87 80.55 318.87 251.17 218.15 257.33 191.1 217.97 191.1 213.42 204.76"/><polyline class="cls-6" points="60.13 217.2 60.13 171.55 258.1 152.86 258.1 201.93 60.13 217.2"/><polygon class="cls-6" points="246.19 216.22 218.52 219.37 52.22 315.53 51.8 331.57 246.19 216.22"/><polygon class="cls-6" points="224.96 137.96 197.69 139.82 59.71 69.8 43.9 61.78 43.9 47.72 59.71 55.6 224.96 137.96"/><polygon class="cls-10" points="59.71 31.64 59.71 470.22 43.9 470.84 43.9 32.25 59.71 31.64"/><polygon class="cls-6" points="455.16 75.35 455.16 92.94 259.25 192.1 246.19 193.25 224.96 195.12 235.24 185.85 246.19 180.35 455.16 75.35"/></svg>